{"title":"Hurts - 2010 - Happiness [FLAC]","uid":5829729,"size":324032720,"categoryP":"audio","categoryS":"flac","magnet":"?xt=urn:btih:5e6a3953872d87bd2b9f65098a5b55cd13d12009&amp;dn=Hurts+-+2010+-+Happiness+%5BFLAC%5D&amp;tr=udp%3A%2F%2Ftracker.openbittorrent.com%3A80&amp;tr=udp%3A%2F%2Fopen.demonii.com%3A1337&amp;tr=udp%3A%2F%2Ftracker.coppersurfer.tk%3A6969&amp;tr=udp%3A%2F%2Fexodus.desync.com%3A6969","seeders":6,"leechers":0,"uploader":"Xbooth","files":14,"time":1284464571,"description":"Exact Audio Copy V0.99 prebeta 5 from 4. May 2009\n\nEAC extraction logfile from 27. August 2010, 18:31\n\nHurts / Happiness\n\nUsed drive  : PIONEER DVD-RW  DVR-216D   Adapter: 1  ID: 0\n\nRead mode               : Secure\nUtilize accurate stream : Yes\nDefeat audio cache      : Yes\nMake use of C2 pointers : No\n\nRead offset correction                      : 96\nOverread into Lead-In and Lead-Out          : No\nFill up missing offset samples with silence : Yes\nDelete leading and trailing silent blocks   : No\nNull samples used in CRC calculations       : Yes\nUsed interface                              : Native Win32 interface for Win NT &amp; 2000\nGap handling                                : Appended to previous track\n\nUsed output format              : User Defined Encoder\nSelected bitrate                : 320 kBit/s\nQuality                         : High\nAdd ID3 tag                     : No\nCommand line compressor         : C:\\Program Files (x86)\\Exact Audio Copy\\Flac\\flac.exe\nAdditional command line options : -V -8 -T &quot;artist=%a&quot; -T &quot;title=%t&quot; -T &quot;album=%g&quot; -T &quot;date=%y&quot; -T &quot;tracknumber=%n&quot; -T &quot;genre=%m&quot; %s\n\n\nTOC of the extracted CD\n\n     Track |   Start  |  Length  | Start sector | End sector \n    ---------------------------------------------------------\n        1  |  0:00.00 |  4:57.73 |         0    |    22347   \n        2  |  4:57.73 |  4:14.10 |     22348    |    41407   \n        3  |  9:12.08 |  4:18.08 |     41408    |    60765   \n        4  | 13:30.16 |  3:52.48 |     60766    |    78213   \n        5  | 17:22.64 |  3:55.15 |     78214    |    95853   \n        6  | 21:18.04 |  3:18.56 |     95854    |   110759   \n        7  | 24:36.60 |  3:54.61 |    110760    |   128370   \n        8  | 28:31.46 |  3:33.10 |    128371    |   144355   \n        9  | 32:04.56 |  4:12.42 |    144356    |   163297   \n       10  | 36:17.23 |  4:46.61 |    163298    |   184808   \n       11  | 41:04.09 |  6:58.19 |    184809    |   216177   \n\n\nTrack  1\n\n     Filename C:\\EACrips\\Hurts - 2010 - Happiness [FLAC]\\01 - Silver Lining.wav\n\n     Pre-gap length  0:00:02.00\n\n     Peak level 99.9 %\n     Track quality 100.0 %\n     Test CRC C7384ADD\n     Copy CRC C7384ADD\n     Track not present in AccurateRip database\n     Copy OK\n\nTrack  2\n\n     Filename C:\\EACrips\\Hurts - 2010 - Happiness [FLAC]\\02 - Wonderful Life.wav\n\n     Peak level 99.9 %\n     Track quality 100.0 %\n     Test CRC 4700040C\n     Copy CRC 4700040C\n     Track not present in AccurateRip database\n     Copy OK\n\nTrack  3\n\n     Filename C:\\EACrips\\Hurts - 2010 - Happiness [FLAC]\\03 - Blood, Tears &amp; Gold.wav\n\n     Peak level 99.9 %\n     Track quality 100.0 %\n     Test CRC 4A130DCC\n     Copy CRC 4A130DCC\n     Track not present in AccurateRip database\n     Copy OK\n\nTrack  4\n\n     Filename C:\\EACrips\\Hurts - 2010 - Happiness [FLAC]\\04 - Sunday.wav\n\n     Peak level 99.9 %\n     Track quality 100.0 %\n     Test CRC 2EEB3C75\n     Copy CRC 2EEB3C75\n     Track not present in AccurateRip database\n     Copy OK\n\nTrack  5\n\n     Filename C:\\EACrips\\Hurts - 2010 - Happiness [FLAC]\\05 - Stay.wav\n\n     Pre-gap length  0:00:01.08\n\n     Peak level 99.9 %\n     Track quality 100.0 %\n     Test CRC 1A3B492C\n     Copy CRC 1A3B492C\n     Track not present in AccurateRip database\n     Copy OK\n\nTrack  6\n\n     Filename C:\\EACrips\\Hurts - 2010 - Happiness [FLAC]\\06 - Illuminated.wav\n\n     Peak level 99.9 %\n     Track quality 100.0 %\n     Test CRC 3B184869\n     Copy CRC 3B184869\n     Track not present in AccurateRip database\n     Copy OK\n\nTrack  7\n\n     Filename C:\\EACrips\\Hurts - 2010 - Happiness [FLAC]\\07 - Evelyn.wav\n\n     Peak level 99.9 %\n     Track quality 100.0 %\n     Test CRC 7FF58A5A\n     Copy CRC 7FF58A5A\n     Track not present in AccurateRip database\n     Copy OK\n\nTrack  8\n\n     Filename C:\\EACrips\\Hurts - 2010 - Happiness [FLAC]\\08 - Better Than Love.wav\n\n     Peak level 99.9 %\n     Track quality 100.0 %\n     Test CRC 5E0EAE9E\n     Copy CRC 5E0EAE9E\n     Track not present in AccurateRip database\n     Copy OK\n\nTrack  9\n\n     Filename C:\\EACrips\\Hurts - 2010 - Happiness [FLAC]\\09 - Devotion.wav\n\n     Peak level 99.9 %\n     Track quality 100.0 %\n     Test CRC 74A634E8\n     Copy CRC 74A634E8\n     Track not present in AccurateRip database\n     Copy OK\n\nTrack 10\n\n     Filename C:\\EACrips\\Hurts - 2010 - Happiness [FLAC]\\10 - Unspoken.wav\n\n     Pre-gap length  0:00:01.16\n\n     Peak level 99.9 %\n     Track quality 100.0 %\n     Test CRC FEA417F4\n     Copy CRC FEA417F4\n     Track not present in AccurateRip database\n     Copy OK\n\nTrack 11\n\n     Filename C:\\EACrips\\Hurts - 2010 - Happiness [FLAC]\\11 - The Water.wav\n\n     Pre-gap length  0:00:01.65\n\n     Peak level 99.9 %\n     Track quality 100.0 %\n     Test CRC F3DDB444\n     Copy CRC F3DDB444\n     Track not present in AccurateRip database\n     Copy OK\n\n\nNone of the tracks are present in the AccurateRip database\n\nNo errors occurred\n\nEnd of status report\n","torrent":{"xt":"urn:btih:5e6a3953872d87bd2b9f65098a5b55cd13d12009","amp;dn":"Hurts+-+2010+-+Happiness+%5BFLAC%5D","amp;tr":["udp%3A%2F%2Ftracker.openbittorrent.com%3A80","udp%3A%2F%2Fopen.demonii.com%3A1337","udp%3A%2F%2Ftracker.coppersurfer.tk%3A6969","udp%3A%2F%2Fexodus.desync.com%3A6969"],"infoHash":"5e6a3953872d87bd2b9f65098a5b55cd13d12009","infoHashBuffer":{"type":"Buffer","data":[94,106,57,83,135,45,135,189,43,159,101,9,138,91,85,205,19,209,32,9]},"announce":[],"urlList":[]}}